# xmcd
#
# Track frame offsets:
#	150
#	17186
#	35040
#	49624
#	67579
#	88514
#	104859
#	124097
#	143116
#	159472
#	175260
#	194124
#	213949
#	231395
#	247488
#	260845
#	278378
#	297099
#
# Disc length: 4254 seconds
#
# Revision: 0
# Processed by: cddbd v1.5.2PL0 Copyright (c) Steve Scherf et al.
# Submitted via: EasyCDDAExtractor 12.0.1.1
#
DISCID=15109c12
DTITLE=Luis Fonsi - Palabras Del Silencio - Un Año Despues
DYEAR=2009
DGENRE=Latin
TTITLE0=Quien Le Va A Decir
TTITLE1=Llueve Por Dentro
TTITLE2=Otro Dia Sera (Desencontrandonos)
TTITLE3=No Me Doy Por Vencido
TTITLE4=Aunque Estes Con El
TTITLE5=La Mentira
TTITLE6=Lagrimas Del Mar
TTITLE7=Todo Vuelve A Empezar (A Duo Con Laura Pausini)
TTITLE8=Persiguiendo El Paraiso
TTITLE9=Todo Lo Que Tengo
TTITLE10=Aqui Estoy Yo (Con La Participacion De David Bisbal, Noel Schajris Y 
TTITLE10=Aleks Syntek)
TTITLE11=Tienes Razon
TTITLE12=No Me Doy Por Vencido (Version Ranchera)
TTITLE13=Asi Debe Ser
TTITLE14=No Me Doy Por Vencido (Version Urbana) (Con La Participacion De MJ)
TTITLE15=No Me Doy Por Vencido (Version Banda) (Con La Participacion De German
TTITLE15=Montero)
TTITLE16=Aqui Estoy Yo (Luis Fonsi Solo)
TTITLE17=Llueve Por Dentro (Version En Vivo)
EXTD=
EXTT0=
EXTT1=
EXTT2=
EXTT3=
EXTT4=
EXTT5=
EXTT6=
EXTT7=
EXTT8=
EXTT9=
EXTT10=
EXTT11=
EXTT12=
EXTT13=
EXTT14=
EXTT15=
EXTT16=
EXTT17=
PLAYORDER=
